<svg xmlns="http://www.w3.org/2000/svg" viewBox="0 0 500 500"><g id="freepik--Device--inject-3"><g id="freepik--Mobile--inject-3"><path d="M197.61,366.42V47.88c0-8.19-4.07-10.45-7.68-12.54S180.36,32,175.22,35L43.69,110.9c-5.14,3-9.31,10.18-9.31,16.11V445.55c0,5.93,3.73,9.43,7.34,11.51s9.92,4.38,15.06,1.42l131.53-76A17.48,17.48,0,0,0,197.61,366.42Z" style="fill:#37474f"></path><path d="M189.25,369.44,54,447.53l0-319.92-16.92-9.77A19,19,0,0,0,34.38,127V445.55c0,5.93,3.73,9.43,7.34,11.51s9.92,4.38,15.06,1.42l131.53-76a17.76,17.76,0,0,0,8.06-9l-.53-.31Z" style="fill:#263238"></path><path d="M188.07,45.13,56.16,121.3a14.45,14.45,0,0,0-6.54,11.3V448.54c0,6.37,4.53,9,10,5.79L188.07,380.2a16.4,16.4,0,0,0,7.4-12.81V49.4C195.47,44.7,192.14,42.78,188.07,45.13Z" style="fill:#455a64"></path><path d="M189,64.5V359.84A15.58,15.58,0,0,1,182,372L63.08,440.69c-3.87,2.25-7,.44-7-4.05V139.13A15.71,15.71,0,0,1,61,128.53l.67-.6a11.53,11.53,0,0,1,1.42-1l33.45-19.32,2.18-1.25c1.21-.7,2.18-.14,2.18,1.25s1,1.92,2.34,1.17l39-22.5a5,5,0,0,0,2.33-3.86,4.94,4.94,0,0,1,2-3.65l.23-.14,32.72-18.88.7-.41C185,56.54,189,58.85,189,64.5Z"></path><path d="M171.8,364.14a15.54,15.54,0,0,0,7-12.18V60.13l-32.1,18.53-.23.14a4.94,4.94,0,0,0-2,3.65,5,5,0,0,1-2.33,3.86l-39,22.5c-1.29.75-2.34.22-2.34-1.17s-1-2-2.18-1.25l-2.18,1.25L63.08,127a11.53,11.53,0,0,0-1.42,1l-.67.6a15.71,15.71,0,0,0-4.93,10.6V431Z" style="fill:#263238"></path><path d="M109.14,96.93,127,86.61c1.07-.62,1.93-.18,1.93,1A4.14,4.14,0,0,1,127,90.79l-17.87,10.32c-1.06.61-1.93.18-1.93-1A4.14,4.14,0,0,1,109.14,96.93Z" style="fill:#263238"></path><path d="M136.18,80.47c1.2-.7,2.18-.13,2.18,1.25a4.81,4.81,0,0,1-2.18,3.77c-1.2.69-2.17.13-2.17-1.26A4.8,4.8,0,0,1,136.18,80.47Z" style="fill:#263238"></path><path d="M46.59,165.22A7.85,7.85,0,0,0,43.15,159a2.28,2.28,0,0,0-2.36-.2c-.43.26-2.13,1.21-2.58,1.48a2.7,2.7,0,0,0-1.06,2.44v26a7.85,7.85,0,0,0,3.44,6.22,2.3,2.3,0,0,0,2.27.24c.48-.25,2.21-1.25,2.66-1.52a2.68,2.68,0,0,0,1.07-2.44Z" style="fill:#455a64"></path><path d="M44,166.7v26c0,2.34-1.54,3.35-3.44,2.25a7.85,7.85,0,0,1-3.44-6.22v-26c0-2.34,1.54-3.34,3.44-2.25A7.86,7.86,0,0,1,44,166.7Z" style="fill:#37474f"></path><path d="M46.59,210.65a7.86,7.86,0,0,0-3.44-6.22,2.3,2.3,0,0,0-2.36-.19c-.43.26-2.13,1.21-2.58,1.48a2.7,2.7,0,0,0-1.06,2.44v26a7.86,7.86,0,0,0,3.44,6.22,2.33,2.33,0,0,0,2.27.24c.48-.25,2.21-1.25,2.66-1.52a2.68,2.68,0,0,0,1.07-2.44Z" style="fill:#455a64"></path><path d="M44,212.13v26c0,2.34-1.54,3.35-3.44,2.25a7.86,7.86,0,0,1-3.44-6.22v-26c0-2.34,1.54-3.35,3.44-2.25A7.86,7.86,0,0,1,44,212.13Z" style="fill:#37474f"></path></g></g><g id="freepik--Screen--inject-3"><g id="freepik--Window--inject-3"><path d="M212,74.44c-1.63-.94-3.88-.81-6.36.62l-.71.42L171.72,94.65a1.42,1.42,0,0,0-.23.14,5,5,0,0,0-2,3.71,5.08,5.08,0,0,1-2.37,3.91l-39.57,22.84-.09,0a1.51,1.51,0,0,0-.65-1.35l-2.28-1.32a1.56,1.56,0,0,0-1.56.16l-2.22,1.28-33.95,19.6a13.3,13.3,0,0,0-1.45,1l-.68.61a16,16,0,0,0-5,10.76V458c0,2.27.79,3.86,2.08,4.6l2.3,1.33c1.29.75,3.07.64,5-.5l120.72-69.7A15.82,15.82,0,0,0,217,381.4V81.59c0-2.86-1-4.87-2.64-5.82Z" style="fill:#7D7D7D"></path><path d="M89.78,462.49v.59l-.68.39c-2,1.14-3.74,1.25-5,.51l-2.3-1.33c-1.29-.75-2.08-2.34-2.08-4.61V156a14.85,14.85,0,0,1,2.46-7.62L84.87,150a14.45,14.45,0,0,0-2.39,7.37v302a5.52,5.52,0,0,0,1,3.44A3,3,0,0,0,85.91,464a6,6,0,0,0,2.94-.92Z" style="opacity:0.30000000000000004"></path><path d="M173.13,97.5a4.18,4.18,0,0,0-.83,2.31,5.07,5.07,0,0,1-.88,2.65l-2.74-1.58a4.54,4.54,0,0,0,.83-2.39,4.8,4.8,0,0,1,.89-2.57Z" style="opacity:0.30000000000000004"></path><path d="M85.91,463.94a3,3,0,0,1-2.45-1.14,5.52,5.52,0,0,1-1-3.44v-302A15.49,15.49,0,0,1,87.33,147l.21-.19.45-.4a9.83,9.83,0,0,1,1.37-.94l34-19.61,2.22-1.27a1.49,1.49,0,0,1,.74-.24c.64,0,.71.75.71,1.07a1.82,1.82,0,0,0,1.76,2.05,2.68,2.68,0,0,0,1.37-.42l39.57-22.84a5.56,5.56,0,0,0,2.62-4.36,4.51,4.51,0,0,1,1.77-3.29,1.18,1.18,0,0,1,.19-.11l33.21-19.17.71-.42a7.69,7.69,0,0,1,3.76-1.16c2.78,0,4.51,2.28,4.51,5.93V381.4a15.22,15.22,0,0,1-6.88,11.93L88.85,463A6,6,0,0,1,85.91,463.94Z" style="fill:#fafafa"></path><path d="M211.94,76.17h0c2.51,0,4,2,4,5.42V381.4a14.89,14.89,0,0,1-6.62,11.49L88.59,462.59a5.56,5.56,0,0,1-2.68.85c-1.83,0-2.92-1.53-2.92-4.08v-302a14.92,14.92,0,0,1,4.67-10l.23-.22.39-.35a11.26,11.26,0,0,1,1.33-.91l34-19.61,2.21-1.27a1.06,1.06,0,0,1,.49-.17c.2,0,.2.51.2.56a2.31,2.31,0,0,0,2.27,2.55,3.21,3.21,0,0,0,1.62-.48l39.57-22.84a6.11,6.11,0,0,0,2.88-4.8,4,4,0,0,1,1.55-2.88l.15-.09,33.22-19.17.7-.41a7.28,7.28,0,0,1,3.51-1.09m0-1a8.14,8.14,0,0,0-4,1.22l-.71.42L174,96a1.35,1.35,0,0,0-.22.14,5,5,0,0,0-2,3.7,5.1,5.1,0,0,1-2.36,3.92l-39.58,22.84a2.19,2.19,0,0,1-1.11.35c-.75,0-1.25-.56-1.25-1.54s-.5-1.58-1.22-1.58a2,2,0,0,0-1,.31l-2.21,1.27L89.11,145a11.37,11.37,0,0,0-1.46,1l-.67.61a16,16,0,0,0-5,10.75v302c0,3.22,1.61,5.09,3.94,5.09a6.55,6.55,0,0,0,3.2-1l120.72-69.7A15.82,15.82,0,0,0,217,381.4V81.59c0-4.07-2.05-6.43-5-6.43Z" style="fill:#7D7D7D"></path></g></g><g id="freepik--Robot--inject-3"><g id="freepik--robot--inject-3"><path d="M230.75,259a4.52,4.52,0,0,0-1.75-.09,10.5,10.5,0,0,0-7.6,5.7c-.8,1.9-.37,3.42.94,4.07a2.52,2.52,0,0,0,.33.14c16.05,6.76,41.16,6.09,64.43-16.72l-8.4-8.58C261.31,260.52,243.22,262.7,230.75,259Z" style="fill:#263238"></path><path d="M305.11,249.35a2.49,2.49,0,0,1-.89,2.23A14.77,14.77,0,0,1,287.06,253a2.5,2.5,0,0,1,2.51-4.33,9.85,9.85,0,0,0,11.46-.94,2.51,2.51,0,0,1,4.08,1.62Z" style="fill:#263238"></path><circle cx="282.9" cy="247.76" r="11.54" style="fill:#7D7D7D"></circle><path d="M289.25,238.13c1.69,1.27,3.88,7.17-1,11.83-5.68,5.38-15.93,2.27-16.7-4a11.54,11.54,0,1,0,17.74-7.83Z" style="opacity:0.2"></path><path d="M274.43,241.84a2.1,2.1,0,0,0-.22.3,6.52,6.52,0,0,0-.89,1.93,3.94,3.94,0,0,0-.13,2.35,1.69,1.69,0,0,0,1.92,1.17c.77-.24,1.1-1.12,1.35-1.88a30.19,30.19,0,0,1,2.55-5.65.76.76,0,0,0,.14-.59c-.09-.26-.43-.32-.71-.31C276.79,239.27,275.51,240.59,274.43,241.84Z" style="fill:#fff;opacity:0.30000000000000004"></path><path d="M295.12,229.26a2.5,2.5,0,0,1-1.91,2.73,9.85,9.85,0,0,0-7.71,8.54,2.5,2.5,0,0,1-5-.63,14.77,14.77,0,0,1,11.55-12.78,2.44,2.44,0,0,1,3,2.14Z" style="fill:#263238"></path><path d="M114.82,247.73c0,43,18.91,132.78,63.6,132.78S242,290.68,242,247.73Z" style="fill:#7D7D7D"></path><path d="M114.82,247.73c0,43,18.91,132.78,63.6,132.78S242,290.68,242,247.73Z" style="fill:#fff;opacity:0.8"></path><path d="M242,247.73c-1.8,25.89-8.91,43.48-20.13,49.7-4.7,2.6-11.3,2.6-17,0-9.55-4.44-16.06-15.12-17.07-20.22l-2.45.49c1.13,5.73,8.07,17.17,18.46,22a28.17,28.17,0,0,0,10.67,2.19,17.57,17.57,0,0,0,8.59-2.22c7.7-4.27,13.56-13.34,17.28-26.37a217.41,217.41,0,0,0,1.7-25.52Z" style="fill:#7D7D7D"></path><path d="M222.39,272c0,44.9-7.41,78.48-22.07,100.36a51.47,51.47,0,0,0,5.33-4.88c12.45-22.17,18.74-54.08,18.74-95.48Z" style="fill:#7D7D7D"></path><path d="M174.21,362.41c-19.41-17.58-23.1-69-17.62-80.19V247.73H114.82c0,43,18.91,132.78,63.6,132.78,15,0,27.1-10.14,36.55-25.23C215,355.29,193.61,380,174.21,362.41Z" style="fill:#7D7D7D;opacity:0.2"></path><path d="M223.39,273.7c-24.84,14.34-65.11,14.34-89.95,0-12.42-7.17-18.62-16.57-18.62-26s6.2-18.79,18.62-26c24.84-14.35,65.11-14.34,89.95,0,12.42,7.17,18.63,16.56,18.63,26S235.81,266.53,223.39,273.7Z" style="fill:#7D7D7D"></path><path d="M223.39,273.7c-24.84,14.34-65.11,14.34-89.95,0-12.42-7.17-18.62-16.57-18.62-26s6.2-18.79,18.62-26c24.84-14.35,65.11-14.34,89.95,0,12.42,7.17,18.63,16.56,18.63,26S235.81,266.53,223.39,273.7Z" style="fill:#fff;opacity:0.6000000000000001"></path><path d="M224.08,255.74a30.85,30.85,0,0,0,9.26-26.54,48.94,48.94,0,0,0-10-7.43c-24.84-14.34-65.11-14.34-89.95,0-12.42,7.17-18.62,16.56-18.62,26s6.2,18.8,18.62,26c21.17,12.21,53.53,14,78,5.41-25,7.66-57.45.83-60.21-12.7C166.23,272.72,204.47,275.3,224.08,255.74Z" style="fill:#7D7D7D;opacity:0.30000000000000004"></path><path d="M116.31,275.28a23,23,0,0,0,23,39.8c2.94-1.7,4.76-5.34,4.76-10.52,0-10.37-7.27-23-16.24-28.15C123.32,273.82,119.25,273.58,116.31,275.28Z" style="fill:#455a64"></path><path d="M126.61,312.4c-11.76,1.07-20.24-8.35-21.6-20.11a23,23,0,0,0,34.28,22.79c2.94-1.7,4.76-5.34,4.76-10.52a27,27,0,0,0-.88-6.55C143.16,304.58,139.2,311.25,126.61,312.4Z" style="fill:#37474f"></path><path d="M114.45,295.37c-3.6-2.07-6.51-.39-6.51,3.76a14.36,14.36,0,0,0,6.51,11.27c3.59,2.08,6.5.39,6.5-3.76A14.39,14.39,0,0,0,114.45,295.37Z" style="fill:#263238"></path><path d="M110.28,297.78a14.4,14.4,0,0,0,6.51,11.27,5.49,5.49,0,0,0,3.27.86,5.52,5.52,0,0,0,.89-3.27,14.39,14.39,0,0,0-6.5-11.27,5.59,5.59,0,0,0-3.28-.86A5.59,5.59,0,0,0,110.28,297.78Z" style="fill:#7D7D7D"></path><path d="M110.57,300.14a14.59,14.59,0,0,0,6.22,8.91,5.49,5.49,0,0,0,3.27.86,5.52,5.52,0,0,0,.89-3.27,11.34,11.34,0,0,0-.53-3.28C118.4,307,111.61,303.67,110.57,300.14Z" style="opacity:0.1"></path><path d="M118.9,307.72a4.5,4.5,0,0,0,.3-1.73,10.49,10.49,0,0,0-4.75-8.22c-1.79-1-3.35-.78-4.15.44a1.92,1.92,0,0,0-.18.31c-8.63,15.13-11,40.14,8.9,66l9.52-7.31C113.69,337.87,113.69,319.65,118.9,307.72Z" style="fill:#263238"></path><path d="M119.54,382.69a2.52,2.52,0,0,1-2.11-1.15,14.77,14.77,0,0,1,.65-17.21,2.5,2.5,0,0,1,4,3,9.86,9.86,0,0,0-.44,11.5,2.5,2.5,0,0,1-2.1,3.85Z" style="fill:#263238"></path><circle cx="123.78" cy="360.83" r="11.54" transform="translate(-232.44 224.34) rotate(-50.1)" style="fill:#7D7D7D"></circle><path d="M132.58,368.29c-1.46,1.52-7.58,3-11.63-2.45-4.65-6.28-.34-16.09,6-16.1a11.54,11.54,0,1,0,5.65,18.55Z" style="opacity:0.2"></path><path d="M130.67,353.13a2.27,2.27,0,0,0-.28-.26,7.11,7.11,0,0,0-1.8-1.11,4,4,0,0,0-2.32-.41,1.7,1.7,0,0,0-1.4,1.77c.15.79,1,1.22,1.71,1.56a30.87,30.87,0,0,1,5.31,3.21.75.75,0,0,0,.57.21c.27-.06.37-.39.38-.67C132.94,355.78,131.78,354.35,130.67,353.13Z" style="fill:#fff;opacity:0.30000000000000004"></path><path d="M140.68,375.18A2.5,2.5,0,0,1,138.2,373a9.85,9.85,0,0,0-7.56-8.68,2.5,2.5,0,0,1,1.22-4.85,14.76,14.76,0,0,1,11.31,13,2.49,2.49,0,0,1-2.21,2.75Z" style="fill:#263238"></path><path d="M229.72,228.16c0-7.58-5-15.16-15-20.94-20-11.57-52.51-11.57-72.55,0-10,5.78-15,13.36-15,20.94v9.39c0,7.58,5,15.16,15,20.94,20,11.57,52.52,11.57,72.55,0,10-5.78,15-13.36,15-20.94Z" style="fill:#37474f"></path><path d="M186.47,266.79c-12.34.25-28.38-5.37-24.3-19.86V200.07a64.9,64.9,0,0,0-20,7.15c-10,5.78-15,13.36-15,20.94v9.39c0,7.58,5,15.16,15,20.94C154.21,265.46,170.81,268.22,186.47,266.79Z" style="fill:#263238"></path><path d="M214.69,249.11c-20,11.57-52.51,11.56-72.55,0-10-5.79-15-13.37-15-21s5-15.16,15-20.94c20-11.57,52.52-11.57,72.55,0,10,5.78,15,13.36,15,20.94S224.71,243.32,214.69,249.11Z" style="fill:#263238"></path><path d="M247.45,242l-2.22-2c2.14-2.37,4.6-6,4.15-10-.34-2.94-2.29-5.66-5.81-8.08a56.25,56.25,0,0,0-13-6.71c-.28-1.16-.85-3-1-3.5a57.61,57.61,0,0,1,15.71,7.74c4.25,2.93,6.64,6.37,7.08,10.2C252.94,234.73,250,239.16,247.45,242Z" style="fill:#263238"></path><path d="M248.36,238.17c-2.9-2.27-4.83-1-8.7,3.72s-2.78,6.64-.38,8.53,5,.73,8.06-3.21C250.74,242.78,251.81,240.88,248.36,238.17Z" style="fill:#7D7D7D"></path><path d="M241.7,241.4a14.07,14.07,0,0,0-2.61,3.3,3.2,3.2,0,0,0-.3,2.67,3,3,0,0,0,.78,1,3.7,3.7,0,0,0,2.36,1.06.77.77,0,0,0,.45-.1.73.73,0,0,0,.26-.56c.12-.93-.13-1.87,0-2.8.27-2.36,2.75-4.09,2.77-6.46a.81.81,0,0,0-.07-.38c-.26-.48-1-.19-1.39,0a3.2,3.2,0,0,0-.47.43c-.26.27-.53.54-.79.82Z" style="fill:#fff;opacity:0.30000000000000004"></path><path d="M235.86,225.82a57.45,57.45,0,1,0-114.89,0c0,8.48,5.61,17,16.83,23.45,22.43,13,58.8,13,81.24,0C230.26,242.79,235.86,234.31,235.86,225.82Z" style="fill:#7D7D7D"></path><path d="M235.86,225.82a57.45,57.45,0,1,0-114.89,0c0,8.48,5.61,17,16.83,23.45,22.43,13,58.8,13,81.24,0C230.26,242.79,235.86,234.31,235.86,225.82Z" style="fill:#fff;opacity:0.8"></path><path d="M228.32,242.25c-29.88,18.41-69.32,16.46-70.21-3.09-.61-13.34-7.5-24.47-16.47-29.63.91-21,14.85-37.65,29.92-40.73h0a57.44,57.44,0,0,0-50.58,57c0,8.48,5.61,17,16.83,23.45,22.43,13,58.8,13,81.24,0a46.31,46.31,0,0,0,6.88-4.81l2.31-2.12Z" style="fill:#7D7D7D;opacity:0.30000000000000004"></path><path d="M234.12,211.77a57.26,57.26,0,0,0-15.24-26.72c0,6-3.93,12-11.84,16.53-9.32,5.38-22,7.59-34.17,6.63A10.52,10.52,0,0,0,161.61,217c-.88,5.44-1.42,10.71-1.73,15.4a10.39,10.39,0,0,0,9.3,11.08c17.16,1.66,35.4-1.33,48.63-9C228.68,228.21,234.12,220,234.12,211.77Z" style="fill:#455a64"></path><path d="M183.62,229.55a2.59,2.59,0,0,1-.48,0,2.5,2.5,0,0,1-2-2.93,11.35,11.35,0,0,1,20.55-4.18,2.5,2.5,0,0,1-4.15,2.8,6.35,6.35,0,0,0-11.49,2.33A2.5,2.5,0,0,1,183.62,229.55Z" style="fill:#7D7D7D"></path><path d="M183.62,229.55a2.59,2.59,0,0,1-.48,0,2.5,2.5,0,0,1-2-2.93,11.35,11.35,0,0,1,20.55-4.18,2.5,2.5,0,0,1-4.15,2.8,6.35,6.35,0,0,0-11.49,2.33A2.5,2.5,0,0,1,183.62,229.55Z" style="fill:#fff;opacity:0.30000000000000004"></path><path d="M229.61,199.76a11.32,11.32,0,0,0-6.83,9.3,2.5,2.5,0,0,0,2.24,2.73,1.93,1.93,0,0,0,.48,0,2.5,2.5,0,0,0,2.25-2.24,6.34,6.34,0,0,1,3.95-5.23Q230.76,202,229.61,199.76Z" style="fill:#7D7D7D"></path><path d="M229.61,199.76a11.32,11.32,0,0,0-6.83,9.3,2.5,2.5,0,0,0,2.24,2.73,1.93,1.93,0,0,0,.48,0,2.5,2.5,0,0,0,2.25-2.24,6.34,6.34,0,0,1,3.95-5.23Q230.76,202,229.61,199.76Z" style="fill:#fff;opacity:0.30000000000000004"></path><g style="opacity:0.1"><path d="M207.38,201.38a119.42,119.42,0,0,1,11.73,32.32,42.57,42.57,0,0,0,6.31-4.69c-2.32-8.78-6.32-20.6-12.87-31.39A31.76,31.76,0,0,1,207.38,201.38Z" style="fill:#fff"></path><path d="M202.76,203.72a54.53,54.53,0,0,1-11.35,3.47,252.5,252.5,0,0,1,4,35.19,76,76,0,0,0,16.46-4.91A207.8,207.8,0,0,0,202.76,203.72Z" style="fill:#fff"></path></g><path d="M106.47,199.53a4.95,4.95,0,1,1-7,0A5,5,0,0,1,106.47,199.53Z" style="fill:#7D7D7D"></path><path d="M106.47,199.53a4.95,4.95,0,1,1-8,1.44c0,.12,0,.25.08.37.46,1.45,2.48,2.09,4.5,1.44s3.25-2.3,2.82-3.74A3.83,3.83,0,0,1,106.47,199.53Z" style="opacity:0.30000000000000004"></path><path d="M105.76,204.07a2.76,2.76,0,0,0-1.74,1.75.87.87,0,0,0,.14.86l21,21,2.47-2.47-21-21A.86.86,0,0,0,105.76,204.07Z" style="fill:#263238"></path><path d="M99.8,199.83a.74.74,0,0,0-.15.79c.2.29.65.2,1,.1a19,19,0,0,1,3.78-.38,1.65,1.65,0,0,0,.73-.15.5.5,0,0,0,.11-.73,2,2,0,0,0-.68-.57,3.54,3.54,0,0,0-2.07-.45,3.91,3.91,0,0,0-1.8.55A3.31,3.31,0,0,0,99.8,199.83Z" style="fill:#fff;opacity:0.30000000000000004"></path><path d="M126.3,210.61a23,23,0,0,0,23,39.8c2.94-1.7,4.76-5.34,4.76-10.52,0-10.36-7.27-23-16.24-28.14C133.31,209.16,129.24,208.91,126.3,210.61Z" style="fill:#455a64"></path><path d="M136.6,247.73c-11.76,1.07-20.24-8.35-21.6-20.11a23,23,0,0,0,34.28,22.79c2.94-1.7,4.76-5.34,4.76-10.52a26.87,26.87,0,0,0-.87-6.54C153.15,239.92,149.19,246.58,136.6,247.73Z" style="fill:#37474f"></path><path d="M124.44,230.71c-3.6-2.08-6.51-.4-6.51,3.75a14.36,14.36,0,0,0,6.51,11.27c3.59,2.08,6.5.4,6.5-3.75A14.38,14.38,0,0,0,124.44,230.71Z" style="fill:#263238"></path><path d="M120.27,233.11a14.39,14.39,0,0,0,6.51,11.27,5.49,5.49,0,0,0,3.27.86,5.46,5.46,0,0,0,.89-3.26,14.38,14.38,0,0,0-6.5-11.27,5.52,5.52,0,0,0-3.28-.86A5.53,5.53,0,0,0,120.27,233.11Z" style="fill:#7D7D7D"></path><path d="M120.56,235.47a14.56,14.56,0,0,0,6.22,8.91,5.49,5.49,0,0,0,3.27.86,5.46,5.46,0,0,0,.89-3.26,11.35,11.35,0,0,0-.53-3.29C128.39,242.31,121.6,239,120.56,235.47Z" style="opacity:0.1"></path><path d="M196.3,154.2a23.31,23.31,0,0,0-23.53,0l-12.39,7.16a59,59,0,0,0-29.44,51h0a1,1,0,0,0,.59.82,3.14,3.14,0,0,0,2.83,0,1,1,0,0,0,.58-.82h0a55,55,0,0,1,27.44-47.51l12.39-7.16A19.53,19.53,0,0,1,204,173.47s0,.92,0,.93c1.91.93,4,2.2,4,2.2v-2A23.31,23.31,0,0,0,196.3,154.2Z" style="fill:#263238"></path><path d="M131.49,215.14a14.37,14.37,0,0,0-8.47-2.22c-.49.41-1,.83-1.41,1.27a8.4,8.4,0,0,1,2.38-.34,14.26,14.26,0,0,1,7,2.15c8.83,5.1,16,17.53,16,27.71,0,3.94-1.08,7-3,8.94.6-.16,1.21-.37,1.81-.59a14.47,14.47,0,0,0,2.23-8.35C148,233.21,140.59,220.39,131.49,215.14Z" style="fill:#7D7D7D"></path><g style="opacity:0.30000000000000004"><path d="M131.49,215.14a14.37,14.37,0,0,0-8.47-2.22c-.49.41-1,.83-1.41,1.27a8.4,8.4,0,0,1,2.38-.34,14.26,14.26,0,0,1,7,2.15c8.83,5.1,16,17.53,16,27.71,0,3.94-1.08,7-3,8.94.6-.16,1.21-.37,1.81-.59a14.47,14.47,0,0,0,2.23-8.35C148,233.21,140.59,220.39,131.49,215.14Z" style="fill:#fff"></path></g></g></g></svg>